<?xml version="1.0" encoding="UTF-8" standalone="no"?>
<svg width="89px" height="11px" viewBox="0 0 89 11" version="1.1" xmlns="http://www.w3.org/2000/svg" xmlns:xlink="http://www.w3.org/1999/xlink" xmlns:sketch="http://www.bohemiancoding.com/sketch/ns">
    <!-- Generator: Sketch 3.4.4 (17249) - http://www.bohemiancoding.com/sketch -->
    <title>LEARN MORE</title>
    <desc>Created with Sketch.</desc>
    <defs></defs>
    <g id="Page-1" stroke="none" stroke-width="1" fill="none" fill-rule="evenodd" sketch:type="MSPage">
        <g id="Artboard-3" sketch:type="MSArtboardGroup" transform="translate(-36.000000, -568.000000)" fill="#FFFFFF">
            <path d="M36.274,577.734 C36.274,577.874 36.386,578 36.54,578 L41.664,578 C41.818,578 41.93,577.874 41.93,577.734 L41.93,576.586 C41.93,576.446 41.818,576.32 41.664,576.32 L38.094,576.32 L38.094,568.466 C38.094,568.326 37.968,568.2 37.828,568.2 L36.54,568.2 C36.386,568.2 36.274,568.326 36.274,568.466 L36.274,577.734 Z M43.4995556,577.734 C43.4995556,577.874 43.6115556,578 43.7655556,578 L49.4635556,578 C49.6175556,578 49.7295556,577.874 49.7295556,577.734 L49.7295556,576.586 C49.7295556,576.446 49.6175556,576.32 49.4635556,576.32 L45.3195556,576.32 L45.3195556,573.87 L48.7775556,573.87 C48.9175556,573.87 49.0435556,573.758 49.0435556,573.604 L49.0435556,572.442 C49.0435556,572.302 48.9175556,572.176 48.7775556,572.176 L45.3195556,572.176 L45.3195556,569.88 L49.4635556,569.88 C49.6175556,569.88 49.7295556,569.754 49.7295556,569.614 L49.7295556,568.466 C49.7295556,568.326 49.6175556,568.2 49.4635556,568.2 L43.7655556,568.2 C43.6115556,568.2 43.4995556,568.326 43.4995556,568.466 L43.4995556,577.734 Z M50.8511111,578 L52.0691111,578 C52.2931111,578 52.4191111,577.86 52.4751111,577.72 L53.1611111,576.208 L57.3471111,576.208 L58.0331111,577.72 C58.1311111,577.916 58.2291111,578 58.4391111,578 L59.6571111,578 C59.8671111,578 59.9791111,577.818 59.8951111,577.636 L55.5831111,568.214 C55.5411111,568.13 55.4851111,568.06 55.3451111,568.06 L55.2051111,568.06 C55.0791111,568.06 55.0091111,568.13 54.9671111,568.214 L50.6131111,577.636 C50.5291111,577.818 50.6411111,578 50.8511111,578 L50.8511111,578 Z M53.8471111,574.654 L55.2191111,571.574 L55.2611111,571.574 L56.6611111,574.654 L53.8471111,574.654 Z M61.3246667,577.734 C61.3246667,577.874 61.4366667,578 61.5906667,578 L62.8786667,578 C63.0186667,578 63.1446667,577.874 63.1446667,577.734 L63.1446667,574.164 L64.6986667,574.164 L66.5606667,577.874 C66.5886667,577.93 66.6586667,578 66.7846667,578 L68.2546667,578 C68.4926667,578 68.5906667,577.776 68.4926667,577.594 L66.5746667,574.038 C67.7926667,573.548 68.6466667,572.498 68.6466667,571.21 C68.6466667,569.544 67.2746667,568.2 65.5946667,568.2 L61.5906667,568.2 C61.4366667,568.2 61.3246667,568.326 61.3246667,568.466 L61.3246667,577.734 Z M63.1586667,572.666 L63.1586667,569.88 L65.4406667,569.88 C66.1826667,569.88 66.8266667,570.496 66.8266667,571.238 C66.8266667,572.022 66.1826667,572.666 65.4406667,572.666 L63.1586667,572.666 Z M70.8042222,577.734 C70.8042222,577.874 70.9302222,578 71.0702222,578 L72.3442222,578 C72.4982222,578 72.6102222,577.874 72.6102222,577.734 L72.6102222,571.714 L72.6242222,571.714 L78.4762222,578.14 L78.8122222,578.14 C78.9522222,578.14 79.0782222,578.028 79.0782222,577.888 L79.0782222,568.466 C79.0782222,568.326 78.9522222,568.2 78.8122222,568.2 L77.5242222,568.2 C77.3702222,568.2 77.2582222,568.326 77.2582222,568.466 L77.2582222,574.248 L77.2442222,574.248 L71.4202222,568.06 L71.0702222,568.06 C70.9302222,568.06 70.8042222,568.172 70.8042222,568.312 L70.8042222,577.734 Z M84.3873334,577.678 C84.3593334,577.874 84.4713334,578 84.6533334,578 L85.9133334,578 C86.0393334,578 86.1513334,577.888 86.1653334,577.79 L86.9773334,572.484 L87.0193334,572.484 L89.4973334,577.986 C89.5393334,578.07 89.6093334,578.14 89.7353334,578.14 L89.9873334,578.14 C90.1133334,578.14 90.1973334,578.07 90.2253334,577.986 L92.6753334,572.484 L92.7173334,572.484 L93.5433334,577.79 C93.5713334,577.888 93.6833334,578 93.8093334,578 L95.0833334,578 C95.2653334,578 95.3773334,577.874 95.3353334,577.678 L93.6833334,568.27 C93.6693334,568.158 93.5853334,568.06 93.4313334,568.06 L93.2073334,568.06 C93.0813334,568.06 93.0113334,568.116 92.9693334,568.2 L89.8893334,574.808 L89.8473334,574.808 L86.7673334,568.2 C86.7253334,568.116 86.6413334,568.06 86.5293334,568.06 L86.3053334,568.06 C86.1513334,568.06 86.0673334,568.158 86.0533334,568.27 L84.3873334,577.678 Z M96.7088889,573.114 C96.7088889,575.914 98.9348889,578.14 101.734889,578.14 C104.534889,578.14 106.774889,575.914 106.774889,573.114 C106.774889,570.314 104.534889,568.06 101.734889,568.06 C98.9348889,568.06 96.7088889,570.314 96.7088889,573.114 L96.7088889,573.114 Z M98.5288889,573.114 C98.5288889,571.35 99.9708889,569.88 101.734889,569.88 C103.498889,569.88 104.954889,571.35 104.954889,573.114 C104.954889,574.878 103.498889,576.32 101.734889,576.32 C99.9708889,576.32 98.5288889,574.878 98.5288889,573.114 L98.5288889,573.114 Z M108.764444,577.734 C108.764444,577.874 108.876444,578 109.030444,578 L110.318444,578 C110.458444,578 110.584444,577.874 110.584444,577.734 L110.584444,574.164 L112.138444,574.164 L114.000444,577.874 C114.028444,577.93 114.098444,578 114.224444,578 L115.694444,578 C115.932444,578 116.030444,577.776 115.932444,577.594 L114.014444,574.038 C115.232444,573.548 116.086444,572.498 116.086444,571.21 C116.086444,569.544 114.714444,568.2 113.034444,568.2 L109.030444,568.2 C108.876444,568.2 108.764444,568.326 108.764444,568.466 L108.764444,577.734 Z M110.598444,572.666 L110.598444,569.88 L112.880444,569.88 C113.622444,569.88 114.266444,570.496 114.266444,571.238 C114.266444,572.022 113.622444,572.666 112.880444,572.666 L110.598444,572.666 Z M118.244,577.734 C118.244,577.874 118.356,578 118.51,578 L124.208,578 C124.362,578 124.474,577.874 124.474,577.734 L124.474,576.586 C124.474,576.446 124.362,576.32 124.208,576.32 L120.064,576.32 L120.064,573.87 L123.522,573.87 C123.662,573.87 123.788,573.758 123.788,573.604 L123.788,572.442 C123.788,572.302 123.662,572.176 123.522,572.176 L120.064,572.176 L120.064,569.88 L124.208,569.88 C124.362,569.88 124.474,569.754 124.474,569.614 L124.474,568.466 C124.474,568.326 124.362,568.2 124.208,568.2 L118.51,568.2 C118.356,568.2 118.244,568.326 118.244,568.466 L118.244,577.734 Z" id="LEARN-MORE" sketch:type="MSShapeGroup"></path>
        </g>
    </g>
</svg>